<?xml version="1.0" standalone="no"?>
<!DOCTYPE svg PUBLIC "-//W3C//DTD SVG 20010904//EN"
 "http://www.w3.org/TR/2001/REC-SVG-20010904/DTD/svg10.dtd">
<svg version="1.0" xmlns="http://www.w3.org/2000/svg"
 width="700.000000pt" height="700.000000pt" viewBox="0 0 700.000000 700.000000"
 preserveAspectRatio="xMidYMid meet">
<metadata>
Created by potrace 1.14, written by Peter Selinger 2001-2017
</metadata>
<g transform="translate(0.000000,700.000000) scale(0.100000,-0.100000)"
fill="#000000" stroke="none">
<path d="M0 3500 l0 -3500 3500 0 3500 0 0 3500 0 3500 -3500 0 -3500 0 0
-3500z m3548 1881 c9 -6 57 -28 105 -51 150 -71 287 -195 336 -305 12 -27 27
-58 32 -68 15 -27 41 -171 46 -256 5 -72 -12 -190 -39 -266 -5 -16 -16 -52
-23 -80 -7 -27 -20 -67 -29 -87 -11 -25 -16 -67 -16 -123 0 -96 12 -134 36
-114 8 6 14 16 14 21 0 28 237 257 267 258 4 0 35 18 68 40 33 22 66 40 73 40
7 0 34 9 59 21 88 40 394 24 451 -24 16 -13 7 -153 -13 -202 -6 -16 -15 -47
-19 -67 -4 -20 -13 -50 -21 -65 -8 -15 -15 -36 -15 -45 0 -9 -6 -23 -13 -30
-7 -7 -26 -36 -42 -64 -65 -112 -222 -215 -419 -273 -60 -18 -96 -21 -261 -21
-228 0 -219 5 -239 -123 -8 -48 -17 -91 -20 -96 -4 -5 -11 -33 -16 -63 -5 -29
-16 -69 -24 -88 -23 -60 -44 -160 -35 -166 5 -3 9 -1 9 5 0 5 10 13 23 17 12
3 29 13 37 20 33 31 119 94 141 104 13 6 42 22 64 35 70 41 143 75 164 75 11
0 43 9 71 20 131 52 342 40 490 -27 108 -49 220 -121 220 -142 0 -23 -68 -152
-125 -236 -39 -59 -154 -185 -168 -185 -3 0 -34 -17 -68 -38 -35 -20 -95 -48
-134 -62 -64 -23 -84 -25 -235 -24 -138 0 -179 4 -250 23 -107 28 -239 78
-312 117 -14 8 -32 14 -39 14 -15 0 -59 -39 -59 -52 0 -10 -90 -170 -100 -178
-4 -3 -28 -36 -55 -75 -41 -60 -131 -168 -200 -240 -11 -11 -49 -45 -84 -75
-36 -30 -79 -67 -95 -83 -17 -15 -35 -27 -41 -27 -5 0 -35 -17 -65 -38 -59
-40 -209 -109 -300 -137 -72 -23 -247 -53 -319 -56 -67 -3 -98 12 -115 53 -30
71 34 110 199 123 44 4 106 15 138 26 31 10 64 19 73 19 9 0 28 6 42 14 15 8
56 29 92 46 193 92 373 247 519 445 56 76 141 208 141 220 0 12 -55 13 -79 0
-26 -13 -103 -25 -262 -42 -60 -6 -224 19 -269 41 -100 49 -183 98 -200 116
-3 3 -20 16 -38 29 -65 45 -180 203 -242 331 -17 36 -38 77 -46 92 -21 39 -17
57 14 63 15 3 41 13 57 21 49 23 131 44 280 71 169 30 218 26 455 -37 54 -15
76 -24 115 -50 17 -11 48 -29 69 -41 51 -27 172 -149 216 -217 28 -44 38 -52
59 -50 20 2 28 12 38 48 7 25 20 59 28 77 8 17 15 38 15 48 0 9 6 28 14 43 8
15 19 56 25 92 6 36 18 90 26 120 18 66 19 96 3 106 -7 4 -96 9 -198 10 -157
2 -195 5 -249 23 -35 12 -69 21 -76 21 -17 0 -94 33 -191 81 -132 66 -235 182
-286 321 -11 32 -25 61 -29 64 -5 3 -9 17 -9 32 0 16 -7 54 -15 86 -18 70 -13
94 23 101 15 3 59 16 97 28 60 18 94 21 240 21 139 0 175 -3 200 -16 17 -9 51
-26 77 -38 41 -18 62 -33 139 -93 80 -62 166 -165 206 -247 7 -14 17 -32 22
-40 5 -8 24 -46 41 -84 28 -59 34 -66 43 -50 14 24 28 313 17 333 -4 9 -57 66
-117 126 -59 61 -126 137 -149 170 -45 67 -94 165 -94 189 0 8 -4 17 -9 20 -5
4 -20 36 -32 74 -31 89 -33 251 -5 327 48 129 61 161 72 175 6 8 14 23 18 34
8 23 48 75 59 75 4 1 15 -3 25 -8z"/>
</g>
</svg>
